<?xml version="1.0" encoding="UTF-8" standalone="no"?>
<!DOCTYPE svg PUBLIC "-//W3C//DTD SVG 1.1//EN" "http://www.w3.org/Graphics/SVG/1.1/DTD/svg11.dtd">
<svg width="100%" height="100%" viewBox="0 0 800 330" version="1.1" xmlns="http://www.w3.org/2000/svg" xmlns:xlink="http://www.w3.org/1999/xlink" xml:space="preserve" xmlns:serif="http://www.serif.com/" style="fill-rule:evenodd;clip-rule:evenodd;stroke-linejoin:round;stroke-miterlimit:2;">
    <g transform="matrix(4.14673,0,0,4.14673,4.663,5.35025)">
        <g id="Layer_2">
            <g>
                <g id="Layer_1">
                    <g id="Path_6228" transform="matrix(1,0,0,1,0,-204.633)">
                        <path d="M33.392,256.987C32.745,258.708 31.09,259.855 29.252,259.855C27.413,259.855 25.758,258.708 25.111,256.987L4.991,256.987C2.253,256.987 0,259.24 0,261.978C0,264.716 2.253,266.969 4.991,266.969L44.8,266.969C51.548,266.97 57.723,263.075 60.628,256.984L33.392,256.987Z" style="fill:rgb(204,41,41);fill-rule:nonzero;"/>
                    </g>
                    <g id="Path_6229" transform="matrix(1,0,0,1,0,-102.323)">
                        <path d="M55.817,133.491C57.529,132.107 58.966,130.414 60.054,128.5L27.566,128.5C26.92,130.222 25.265,131.369 23.426,131.369C21.588,131.369 19.933,130.222 19.287,128.5L4.991,128.5C2.253,128.5 -0,130.753 0,133.491C0,136.229 2.253,138.482 4.991,138.482L37.891,138.482C38.57,136.187 40.692,134.602 43.085,134.602C45.479,134.602 47.601,136.187 48.28,138.482L60.058,138.482C58.969,136.568 57.53,134.875 55.817,133.491Z" style="fill:rgb(204,41,41);fill-rule:nonzero;"/>
                    </g>
                    <path id="Path_6230" d="M44.8,0L4.991,0C2.253,0 -0,2.253 0,4.991C0,7.729 2.253,9.982 4.991,9.982L45.8,9.982C46.479,7.687 48.601,6.102 50.994,6.102C53.388,6.102 55.51,7.687 56.189,9.982L60.634,9.982C57.727,3.89 51.55,-0.004 44.8,0Z" style="fill:rgb(204,41,41);fill-rule:nonzero;"/>
                    <g id="Path_6231" transform="matrix(1,0,0,1,-32.648,-153.485)">
                        <path d="M94.087,192.75L80.927,192.75C80.248,195.045 78.126,196.63 75.733,196.63C73.339,196.63 71.217,195.045 70.538,192.75L45.983,192.75C43.248,192.754 41,195.006 41,197.741C41,200.479 43.253,202.732 45.991,202.732L57.767,202.732C58.414,201.011 60.069,199.864 61.908,199.864C63.746,199.864 65.401,201.011 66.048,202.732L94.415,202.732C94.793,201.281 94.984,199.788 94.983,198.289C94.985,196.406 94.682,194.536 94.087,192.75Z" style="fill:rgb(204,41,41);fill-rule:nonzero;"/>
                    </g>
                    <g id="Path_6232" transform="matrix(1,0,0,1,-32.648,-51.15)">
                        <path d="M94.413,64.239L88.829,64.239C88.15,66.534 86.028,68.119 83.635,68.119C81.241,68.119 79.119,66.534 78.44,64.239L45.983,64.239C43.248,64.243 41,66.495 41,69.23C41,71.968 43.253,74.221 45.991,74.221L51.935,74.221C52.581,72.499 54.236,71.352 56.075,71.352C57.913,71.352 59.568,72.499 60.214,74.221L94.087,74.221C94.683,72.435 94.987,70.565 94.987,68.682C94.987,67.182 94.795,65.688 94.416,64.236L94.413,64.239Z" style="fill:rgb(204,41,41);fill-rule:nonzero;"/>
                    </g>
                    <g id="Path_6233" transform="matrix(1,0,0,1,-243.664,-204.633)">
                        <path d="M339.392,256.987C338.745,258.708 337.09,259.855 335.251,259.855C333.413,259.855 331.758,258.708 331.111,256.987L310.991,256.987C308.253,256.987 306,259.24 306,261.978C306,264.716 308.253,266.969 310.991,266.969L350.8,266.969C357.548,266.97 363.723,263.075 366.628,256.984L339.392,256.987Z" style="fill:rgb(54,178,54);fill-rule:nonzero;"/>
                    </g>
                    <g id="Path_6234" transform="matrix(1,0,0,1,-243.664,-102.323)">
                        <path d="M361.817,133.491C363.529,132.107 364.966,130.414 366.054,128.5L333.566,128.5C332.92,130.222 331.265,131.369 329.426,131.369C327.588,131.369 325.933,130.222 325.287,128.5L310.987,128.5C308.251,128.502 306,130.755 306,133.491C306,136.229 308.253,138.482 310.991,138.482L343.891,138.482C344.575,136.196 346.694,134.618 349.08,134.618C351.467,134.618 353.586,136.196 354.27,138.482L366.049,138.482C364.962,136.569 363.527,134.876 361.817,133.491Z" style="fill:rgb(54,178,54);fill-rule:nonzero;"/>
                    </g>
                    <g id="Path_6235" transform="matrix(1,0,0,1,-243.664,0)">
                        <path d="M350.8,0L310.991,0C308.253,0 306,2.253 306,4.991C306,7.729 308.253,9.982 310.991,9.982L351.8,9.982C352.484,7.696 354.603,6.118 356.99,6.118C359.376,6.118 361.495,7.696 362.179,9.982L366.624,9.982C363.719,3.893 357.546,-0.001 350.8,-0Z" style="fill:rgb(54,178,54);fill-rule:nonzero;"/>
                    </g>
                    <g id="Path_6236" transform="matrix(1,0,0,1,-276.28,-153.485)">
                        <path d="M400.055,192.75L386.9,192.75C386.216,195.036 384.097,196.614 381.71,196.614C379.324,196.614 377.205,195.036 376.521,192.75L351.951,192.75C349.213,192.75 346.96,195.003 346.96,197.741C346.96,200.479 349.213,202.732 351.951,202.732L363.728,202.732C364.375,201.011 366.03,199.864 367.869,199.864C369.707,199.864 371.362,201.011 372.009,202.732L400.384,202.732C400.762,201.281 400.953,199.788 400.952,198.289C400.953,196.406 400.65,194.536 400.055,192.75Z" style="fill:rgb(54,178,54);fill-rule:nonzero;"/>
                    </g>
                    <g id="Path_6237" transform="matrix(1,0,0,1,-276.312,-51.15)">
                        <path d="M400.413,64.239L394.829,64.239C394.145,66.525 392.026,68.103 389.64,68.103C387.253,68.103 385.134,66.525 384.45,64.239L351.983,64.239C349.248,64.243 347,66.495 347,69.23C347,71.968 349.253,74.221 351.991,74.221L357.943,74.221C358.589,72.499 360.244,71.352 362.083,71.352C363.921,71.352 365.576,72.499 366.222,74.221L400.087,74.221C400.683,72.435 400.987,70.565 400.987,68.682C400.987,67.182 400.795,65.688 400.416,64.236L400.413,64.239Z" style="fill:rgb(54,178,54);fill-rule:nonzero;"/>
                    </g>
                    <g id="Path_6238" transform="matrix(1,0,0,1,-706.295,-6.659)">
                        <path d="M886.987,35.6C888.708,36.247 889.855,37.902 889.855,39.741C889.855,41.579 888.708,43.234 886.987,43.881L886.987,64C886.987,66.738 889.24,68.991 891.978,68.991C894.716,68.991 896.969,66.738 896.969,64L896.969,24.19C896.97,17.442 893.075,11.267 886.984,8.362L886.987,35.6Z" style="fill:rgb(0,146,204);fill-rule:nonzero;"/>
                    </g>
                    <g id="Path_6239" transform="matrix(1,0,0,1,-603.985,-8.91)">
                        <path d="M763.491,15.429C762.107,13.717 760.414,12.28 758.5,11.192L758.5,43.68C760.222,44.326 761.369,45.981 761.369,47.82C761.369,49.658 760.222,51.313 758.5,51.959L758.5,66.259C758.5,68.997 760.753,71.25 763.491,71.25C766.229,71.25 768.482,68.997 768.482,66.259L768.482,33.359C766.196,32.675 764.618,30.556 764.618,28.17C764.618,25.783 766.196,23.664 768.482,22.98L768.482,11.19C766.568,12.279 764.875,13.717 763.491,15.429Z" style="fill:rgb(0,146,204);fill-rule:nonzero;"/>
                    </g>
                    <g id="Path_6240" transform="matrix(1,0,0,1,-501.662,-6.681)">
                        <path d="M630,24.212L630,64.026C630,66.764 632.253,69.017 634.991,69.017C637.729,69.017 639.982,66.764 639.982,64.026L639.982,23.214C637.696,22.53 636.118,20.411 636.118,18.025C636.118,15.638 637.696,13.519 639.982,12.835L639.982,8.39C633.894,11.295 630,17.466 630,24.212Z" style="fill:rgb(0,146,204);fill-rule:nonzero;"/>
                    </g>
                    <g id="Path_6241" transform="matrix(1,0,0,1,-655.147,0)">
                        <path d="M822.75,0.9L822.75,14.06C825.036,14.744 826.614,16.863 826.614,19.25C826.614,21.636 825.036,23.755 822.75,24.439L822.75,49C822.75,51.738 825.003,53.991 827.741,53.991C830.479,53.991 832.732,51.738 832.732,49L832.732,37.224C831.011,36.577 829.864,34.922 829.864,33.084C829.864,31.245 831.011,29.59 832.732,28.943L832.732,0.568C831.281,0.19 829.788,-0.001 828.289,-0C826.406,-0 824.536,0.304 822.75,0.9Z" style="fill:rgb(0,146,204);fill-rule:nonzero;"/>
                    </g>
                    <g id="Path_6242" transform="matrix(1,0,0,1,-552.813,0)">
                        <path d="M694.239,0.57L694.239,6.154C696.525,6.838 698.103,8.957 698.103,11.343C698.103,13.73 696.525,15.849 694.239,16.533L694.239,49C694.239,51.738 696.492,53.991 699.23,53.991C701.968,53.991 704.221,51.738 704.221,49L704.221,43.048C702.499,42.402 701.352,40.747 701.352,38.909C701.352,37.07 702.499,35.415 704.221,34.769L704.221,0.9C702.435,0.304 700.565,-0 698.682,0C697.182,-0 695.688,0.192 694.236,0.571L694.239,0.57Z" style="fill:rgb(0,146,204);fill-rule:nonzero;"/>
                    </g>
                    <g id="Path_6243" transform="matrix(1,0,0,1,0,-252.424)">
                        <path d="M11.9,326.371C11.942,327.143 11.618,327.892 11.026,328.39C10.244,328.944 9.296,329.215 8.339,329.156L0,329.156L0,317L8.34,317C10.697,317 11.876,317.917 11.876,319.75L11.876,320.75C11.907,321.213 11.81,321.676 11.597,322.088C11.274,322.56 10.804,322.911 10.261,323.088C10.438,323.169 10.701,323.288 11.049,323.44C11.511,323.756 11.806,324.266 11.849,324.825C11.895,325.341 11.912,325.859 11.898,326.377L11.9,326.371ZM9.482,326.055L9.482,325.24C9.482,324.389 8.862,323.964 7.622,323.965L2.42,323.965L2.42,327.389L7.62,327.389C8.859,327.389 9.479,326.946 9.48,326.059L9.482,326.055ZM9.506,320.95L9.506,320.037C9.506,319.17 8.841,318.737 7.512,318.737L2.445,318.737L2.445,322.2L7.6,322.2C8.871,322.2 9.508,321.784 9.509,320.953L9.506,320.95Z" style="fill-rule:nonzero;"/>
                    </g>
                    <g id="Path_6244" transform="matrix(1,0,0,1,-54.602,-263.739)">
                        <path d="M74.514,332.779C73.552,332.748 72.589,332.781 71.631,332.879C71.087,333.02 70.725,333.542 70.782,334.101L70.782,340.416L68.57,340.416L68.57,333.681C68.57,332.035 69.724,331.212 72.033,331.212L74.514,331.212L74.514,332.779Z" style="fill-rule:nonzero;"/>
                    </g>
                    <g id="Path_6245" transform="matrix(1,0,0,1,-86.525,-264.217)">
                        <path d="M119.031,335.422L110.838,337.84L110.838,338.14C110.809,338.56 111.018,338.962 111.378,339.179C111.791,339.343 112.235,339.411 112.678,339.379L118.993,339.379L118.993,340.948L112.27,340.948C111.383,341.009 110.497,340.828 109.705,340.425C109.011,340.022 108.604,339.256 108.66,338.455L108.66,334.126C108.66,332.578 109.799,331.804 112.076,331.804L115.832,331.804C117.955,331.804 119.016,332.627 119.016,334.273L119.031,335.422ZM116.843,334.534L116.843,334.4C116.843,333.703 116.276,333.355 115.143,333.355L112.786,333.355C111.471,333.355 110.815,333.748 110.816,334.535L110.816,336.335L116.843,334.534Z" style="fill-rule:nonzero;"/>
                    </g>
                    <g id="Path_6246" transform="matrix(1,0,0,1,-135.894,-264.121)">
                        <path d="M181.043,338.571C181.057,339.221 180.753,339.839 180.228,340.223C179.584,340.675 178.807,340.898 178.022,340.857L173.944,340.857C173.13,340.896 172.321,340.706 171.609,340.309C171.012,339.971 170.647,339.331 170.662,338.645L170.662,337.028C170.631,336.354 170.951,335.71 171.507,335.328C172.198,334.893 173.008,334.684 173.823,334.728L178.928,334.728C178.943,334.65 178.95,334.57 178.95,334.49C178.95,333.783 178.368,333.201 177.661,333.201C177.534,333.201 177.408,333.22 177.286,333.257L170.71,333.257L170.71,331.69L177.579,331.69C179.888,331.69 181.042,332.464 181.042,334.012L181.043,338.571ZM178.904,338.271L178.904,336.507C178.904,336.307 178.737,336.207 178.404,336.207L174.32,336.207C173.308,336.207 172.801,336.588 172.8,337.35L172.8,338.25C172.792,338.568 172.967,338.864 173.25,339.01C173.585,339.192 173.963,339.282 174.344,339.271L177.4,339.271C178.4,339.266 178.9,338.933 178.9,338.272L178.904,338.271Z" style="fill-rule:nonzero;"/>
                    </g>
                    <g id="Path_6247" transform="matrix(1,0,0,1,-186.765,-252.424)">
                        <path d="M245.027,317L245.027,326.595C245.09,327.388 244.699,328.151 244.019,328.563C243.273,328.98 242.428,329.188 241.574,329.163L237.805,329.163C235.632,329.163 234.546,328.332 234.546,326.67L234.546,322.3C234.524,321.6 234.85,320.933 235.416,320.52C236.11,320.044 236.941,319.812 237.781,319.858L242.886,319.858L242.886,317L245.027,317ZM242.892,326.371L242.892,321.816C242.892,321.565 242.717,321.439 242.368,321.439L238.43,321.439C237.271,321.439 236.691,321.872 236.69,322.739L236.69,326.263C236.651,326.613 236.773,326.962 237.02,327.212C237.439,327.48 237.934,327.604 238.43,327.564L241.019,327.564C242.268,327.566 242.892,327.168 242.892,326.371Z" style="fill-rule:nonzero;"/>
                    </g>
                    <g id="Path_6248" transform="matrix(1,0,0,1,-238.09,-252.424)">
                        <path d="M310.895,326.371C310.937,327.143 310.613,327.892 310.021,328.39C309.239,328.944 308.291,329.215 307.334,329.156L299,329.156L299,317L307.34,317C309.696,317 310.875,317.92 310.876,319.76L310.876,320.76C310.908,321.223 310.811,321.686 310.597,322.098C310.275,322.57 309.805,322.922 309.261,323.098C309.438,323.179 309.701,323.298 310.051,323.45C310.513,323.767 310.807,324.277 310.851,324.835C310.895,325.348 310.909,325.863 310.894,326.377L310.895,326.371ZM308.477,326.059L308.477,325.24C308.477,324.389 307.857,323.964 306.617,323.965L301.417,323.965L301.417,327.389L306.617,327.389C307.856,327.389 308.476,326.946 308.477,326.059ZM308.501,320.95L308.501,320.037C308.501,319.17 307.836,318.737 306.507,318.737L301.445,318.737L301.445,322.2L306.6,322.2C307.867,322.2 308.5,321.784 308.5,320.953L308.501,320.95Z" style="fill-rule:nonzero;"/>
                    </g>
                    <g id="Path_6249" transform="matrix(1,0,0,1,-293.947,-264.217)">
                        <path d="M379.528,338.691C379.546,339.435 379.141,340.129 378.483,340.477C377.794,340.839 377.018,341.003 376.242,340.952L372.542,340.952C371.651,341.015 370.762,340.801 369.996,340.341C369.451,339.972 369.132,339.347 369.151,338.689L369.151,334.132C369.135,333.366 369.548,332.652 370.221,332.284C370.939,331.923 371.741,331.759 372.543,331.809L376.251,331.809C377.034,331.752 377.818,331.917 378.512,332.284C379.17,332.66 379.564,333.375 379.531,334.132L379.528,338.691ZM377.389,338.266L377.389,334.557C377.411,334.179 377.217,333.82 376.889,333.632C376.511,333.421 376.08,333.324 375.648,333.353L373.108,333.353C372.657,333.322 372.206,333.419 371.808,333.632C371.468,333.811 371.263,334.174 371.284,334.557L371.284,338.24C371.27,338.612 371.475,338.96 371.808,339.128C372.158,339.318 372.554,339.406 372.951,339.383L375.8,339.383C376.182,339.407 376.562,339.318 376.894,339.128C377.209,338.958 377.401,338.623 377.389,338.266Z" style="fill-rule:nonzero;"/>
                    </g>
                    <g id="Path_6250" transform="matrix(1,0,0,1,-345.167,-264.121)">
                        <path d="M443.853,338.571C443.867,339.221 443.563,339.839 443.038,340.223C442.394,340.675 441.617,340.898 440.832,340.857L436.754,340.857C435.94,340.896 435.132,340.706 434.42,340.309C433.823,339.971 433.458,339.331 433.473,338.645L433.473,337.028C433.442,336.354 433.762,335.71 434.318,335.328C435.009,334.894 435.817,334.684 436.632,334.728L441.739,334.728C441.754,334.65 441.761,334.57 441.761,334.49C441.761,333.783 441.179,333.201 440.472,333.201C440.345,333.201 440.219,333.22 440.097,333.257L433.52,333.257L433.52,331.69L440.387,331.69C442.696,331.69 443.85,332.464 443.85,334.012L443.853,338.571ZM441.714,338.272L441.714,336.507C441.714,336.307 441.547,336.207 441.214,336.207L437.13,336.207C436.118,336.207 435.611,336.588 435.61,337.35L435.61,338.25C435.602,338.568 435.777,338.864 436.06,339.01C436.395,339.192 436.773,339.282 437.154,339.271L440.21,339.271C441.213,339.266 441.714,338.933 441.714,338.272Z" style="fill-rule:nonzero;"/>
                    </g>
                    <g id="Path_6251" transform="matrix(1,0,0,1,-393.741,-263.739)">
                        <path d="M500.414,332.779C499.452,332.748 498.489,332.781 497.531,332.879C496.987,333.02 496.625,333.542 496.682,334.101L496.682,340.416L494.47,340.416L494.47,333.681C494.47,332.035 495.624,331.212 497.933,331.212L500.414,331.212L500.414,332.779Z" style="fill-rule:nonzero;"/>
                    </g>
                    <g id="Path_6252" transform="matrix(1,0,0,1,-425.668,-252.424)">
                        <path d="M545.057,317L545.057,326.595C545.119,327.39 544.723,328.155 544.038,328.563C543.292,328.981 542.447,329.188 541.593,329.163L537.824,329.163C535.651,329.163 534.565,328.332 534.565,326.67L534.565,322.3C534.543,321.601 534.868,320.934 535.433,320.52C536.131,320.045 536.967,319.812 537.81,319.856L542.91,319.856L542.91,317L545.057,317ZM542.916,326.371L542.916,321.816C542.916,321.565 542.743,321.439 542.395,321.439L538.455,321.439C537.296,321.439 536.717,321.872 536.717,322.739L536.717,326.263C536.678,326.612 536.799,326.961 537.045,327.212C537.464,327.48 537.959,327.603 538.455,327.564L541.044,327.564C542.293,327.566 542.917,327.168 542.916,326.371Z" style="fill-rule:nonzero;"/>
                    </g>
                    <g id="Path_6253" transform="matrix(1,0,0,1,-505.69,-252.44)">
                        <path d="M651.688,329.239L649.38,329.239L649.38,319.665L645.102,328.186C644.836,328.92 644.144,329.419 643.364,329.439C642.967,329.455 642.578,329.325 642.27,329.074C642.045,328.833 641.86,328.558 641.722,328.259L637.369,319.664L637.369,329.238L635.059,329.238L635.059,318.646C635.051,318.199 635.254,317.772 635.607,317.497C636.043,317.17 636.581,317.008 637.125,317.041C637.966,316.962 638.773,317.413 639.144,318.172L643.351,326.795L647.629,318.164C647.995,317.411 648.789,316.957 649.623,317.021C650.174,316.985 650.719,317.152 651.155,317.49C651.506,317.788 651.702,318.23 651.689,318.69L651.688,329.239Z" style="fill-rule:nonzero;"/>
                    </g>
                    <g id="Path_6254" transform="matrix(1,0,0,1,-581.012,-264.121)">
                        <path d="M740.031,338.571C740.044,339.221 739.74,339.838 739.216,340.223C738.572,340.675 737.795,340.898 737.01,340.857L732.936,340.857C732.122,340.896 731.313,340.707 730.601,340.309C730.004,339.972 729.638,339.331 729.652,338.645L729.652,337.028C729.621,336.354 729.941,335.71 730.497,335.328C731.188,334.894 731.998,334.684 732.813,334.728L737.918,334.728C737.933,334.649 737.94,334.569 737.94,334.489C737.94,333.783 737.359,333.201 736.652,333.201C736.525,333.201 736.399,333.22 736.278,333.257L729.7,333.257L729.7,331.69L736.569,331.69C738.878,331.69 740.032,332.464 740.032,334.012L740.031,338.571ZM737.89,338.272L737.89,336.507C737.89,336.307 737.725,336.207 737.39,336.207L733.316,336.207C732.301,336.207 731.795,336.588 731.796,337.35L731.796,338.25C731.787,338.568 731.963,338.865 732.246,339.01C732.581,339.192 732.959,339.282 733.34,339.271L736.4,339.271C737.395,339.266 737.891,338.933 737.89,338.272Z" style="fill-rule:nonzero;"/>
                    </g>
                    <g id="Path_6255" transform="matrix(1,0,0,1,-631.903,-252.288)">
                        <path d="M798.41,321.55L795.7,321.55L795.7,329.026L793.56,329.026L793.56,316.826L795.7,316.826L795.7,320.012L798.411,320.012L798.41,321.55Z" style="fill-rule:nonzero;"/>
                    </g>
                    <g id="Path_6256" transform="matrix(1,0,0,1,-660.482,-264.217)">
                        <path d="M839.813,335.422L831.62,337.84L831.62,338.14C831.591,338.563 831.804,338.968 832.168,339.185C832.581,339.349 833.025,339.417 833.468,339.385L839.783,339.385L839.783,340.954L833.06,340.954C832.173,341.015 831.287,340.834 830.495,340.43C829.801,340.027 829.394,339.261 829.45,338.46L829.45,334.125C829.45,332.577 830.589,331.803 832.866,331.803L836.622,331.803C838.745,331.803 839.806,332.626 839.806,334.272L839.813,335.422ZM837.625,334.534L837.625,334.4C837.625,333.703 837.058,333.355 835.925,333.355L833.566,333.355C832.254,333.355 831.597,333.748 831.596,334.535L831.596,336.335L837.625,334.534Z" style="fill-rule:nonzero;"/>
                    </g>
                    <g id="Path_6257" transform="matrix(1,0,0,1,-708.355,-264.217)">
                        <path d="M899.028,333.379L893.375,333.379C892.986,333.358 892.596,333.42 892.232,333.56C891.936,333.653 891.728,333.921 891.711,334.23L891.711,334.607C891.711,335.238 892.282,335.554 893.424,335.554L896.224,335.554C896.939,335.525 897.643,335.737 898.224,336.154C898.719,336.5 899.013,337.068 899.008,337.672L899.008,338.792C898.996,339.4 898.705,339.969 898.218,340.334C897.941,340.599 897.594,340.78 897.218,340.857C896.805,340.934 896.385,340.968 895.965,340.957L889.57,340.957L889.57,339.39L895.394,339.39C895.825,339.444 896.26,339.316 896.594,339.038C896.769,338.745 896.845,338.404 896.812,338.064C896.812,337.441 896.345,337.129 895.412,337.129L892.78,337.129C892.009,337.159 891.244,336.978 890.568,336.606C889.984,336.323 889.607,335.735 889.594,335.086L889.594,333.864C889.618,333.148 890.054,332.507 890.712,332.222C891.363,331.908 892.083,331.768 892.804,331.815L899.027,331.815L899.028,333.379Z" style="fill-rule:nonzero;"/>
                    </g>
                </g>
            </g>
        </g>
    </g>
</svg>
